{
	"patcher" : 	{
		"fileversion" : 1,
		"appversion" : 		{
			"major" : 8,
			"minor" : 1,
			"revision" : 1,
			"architecture" : "x64",
			"modernui" : 1
		}
,
		"classnamespace" : "box",
		"rect" : [ 34.0, 79.0, 1372.0, 787.0 ],
		"bglocked" : 0,
		"openinpresentation" : 1,
		"default_fontsize" : 12.0,
		"default_fontface" : 0,
		"default_fontname" : "Arial",
		"gridonopen" : 1,
		"gridsize" : [ 15.0, 15.0 ],
		"gridsnaponopen" : 1,
		"objectsnaponopen" : 1,
		"statusbarvisible" : 2,
		"toolbarvisible" : 1,
		"lefttoolbarpinned" : 0,
		"toptoolbarpinned" : 0,
		"righttoolbarpinned" : 0,
		"bottomtoolbarpinned" : 0,
		"toolbars_unpinned_last_save" : 0,
		"tallnewobj" : 0,
		"boxanimatetime" : 200,
		"enablehscroll" : 1,
		"enablevscroll" : 1,
		"devicewidth" : 0.0,
		"description" : "",
		"digest" : "",
		"tags" : "",
		"style" : "",
		"subpatcher_template" : "",
		"boxes" : [ 			{
				"box" : 				{
					"id" : "obj-60",
					"maxclass" : "newobj",
					"numinlets" : 2,
					"numoutlets" : 2,
					"outlettype" : [ "bang", "" ],
					"patcher" : 					{
						"fileversion" : 1,
						"appversion" : 						{
							"major" : 8,
							"minor" : 1,
							"revision" : 1,
							"architecture" : "x64",
							"modernui" : 1
						}
,
						"classnamespace" : "box",
						"rect" : [ 0.0, 0.0, 640.0, 480.0 ],
						"bglocked" : 0,
						"openinpresentation" : 0,
						"default_fontsize" : 12.0,
						"default_fontface" : 0,
						"default_fontname" : "Arial",
						"gridonopen" : 1,
						"gridsize" : [ 15.0, 15.0 ],
						"gridsnaponopen" : 1,
						"objectsnaponopen" : 1,
						"statusbarvisible" : 2,
						"toolbarvisible" : 1,
						"lefttoolbarpinned" : 0,
						"toptoolbarpinned" : 0,
						"righttoolbarpinned" : 0,
						"bottomtoolbarpinned" : 0,
						"toolbars_unpinned_last_save" : 0,
						"tallnewobj" : 0,
						"boxanimatetime" : 200,
						"enablehscroll" : 1,
						"enablevscroll" : 1,
						"devicewidth" : 0.0,
						"description" : "",
						"digest" : "",
						"tags" : "",
						"style" : "",
						"subpatcher_template" : "",
						"boxes" : [ 							{
								"box" : 								{
									"id" : "obj-49",
									"linecount" : 5,
									"maxclass" : "comment",
									"numinlets" : 1,
									"numoutlets" : 0,
									"patching_rect" : [ 50.0, 194.400001466274261, 115.0, 74.0 ],
									"text" : "When umenu tweeked bang tempo chocie into switch. NOTE: Max right to left priority!!"
								}

							}
, 							{
								"box" : 								{
									"id" : "obj-48",
									"linecount" : 4,
									"maxclass" : "comment",
									"numinlets" : 1,
									"numoutlets" : 0,
									"patching_rect" : [ 307.66664468764111, 100.0, 109.0, 60.0 ],
									"text" : "When tempo dial tweeked bang umenu choice into switch"
								}

							}
, 							{
								"box" : 								{
									"id" : "obj-42",
									"maxclass" : "button",
									"numinlets" : 1,
									"numoutlets" : 1,
									"outlettype" : [ "bang" ],
									"parameter_enable" : 0,
									"patching_rect" : [ 170.000001788139343, 219.400001466274261, 24.0, 24.0 ]
								}

							}
, 							{
								"box" : 								{
									"id" : "obj-26",
									"maxclass" : "button",
									"numinlets" : 1,
									"numoutlets" : 1,
									"outlettype" : [ "bang" ],
									"parameter_enable" : 0,
									"patching_rect" : [ 265.400003552436829, 107.200000107288361, 24.0, 24.0 ]
								}

							}
, 							{
								"box" : 								{
									"id" : "obj-21",
									"maxclass" : "newobj",
									"numinlets" : 4,
									"numoutlets" : 1,
									"outlettype" : [ "" ],
									"patching_rect" : [ 265.400003552436829, 324.399996936321259, 135.200001239776611, 22.0 ],
									"text" : "switch 3"
								}

							}
, 							{
								"box" : 								{
									"bubble" : 1,
									"id" : "obj-17",
									"maxclass" : "comment",
									"numinlets" : 1,
									"numoutlets" : 0,
									"patching_rect" : [ 616.66664468764111, 450.599998831748962, 132.0, 24.0 ],
									"text" : "Ms per semiquaver"
								}

							}
, 							{
								"box" : 								{
									"bubble" : 1,
									"id" : "obj-18",
									"linecount" : 2,
									"maxclass" : "comment",
									"numinlets" : 1,
									"numoutlets" : 0,
									"patching_rect" : [ 616.66664468764111, 387.599998831748962, 127.0, 37.0 ],
									"text" : "Convert to semiquaver"
								}

							}
, 							{
								"box" : 								{
									"format" : 6,
									"id" : "obj-19",
									"maxclass" : "flonum",
									"numinlets" : 1,
									"numoutlets" : 2,
									"outlettype" : [ "", "bang" ],
									"parameter_enable" : 0,
									"patching_rect" : [ 547.800006687641144, 450.599998831748962, 50.0, 22.0 ]
								}

							}
, 							{
								"box" : 								{
									"id" : "obj-20",
									"maxclass" : "newobj",
									"numinlets" : 2,
									"numoutlets" : 1,
									"outlettype" : [ "float" ],
									"patching_rect" : [ 547.800006687641144, 387.599998831748962, 29.5, 22.0 ],
									"text" : "/ 2."
								}

							}
, 							{
								"box" : 								{
									"bubble" : 1,
									"id" : "obj-15",
									"maxclass" : "comment",
									"numinlets" : 1,
									"numoutlets" : 0,
									"patching_rect" : [ 616.66664468764111, 323.399996936321259, 108.0, 24.0 ],
									"text" : "Ms per quaver"
								}

							}
, 							{
								"box" : 								{
									"bubble" : 1,
									"id" : "obj-13",
									"maxclass" : "comment",
									"numinlets" : 1,
									"numoutlets" : 0,
									"patching_rect" : [ 616.66664468764111, 192.399996936321259, 108.0, 24.0 ],
									"text" : "Ms per crotchet"
								}

							}
, 							{
								"box" : 								{
									"bubble" : 1,
									"id" : "obj-11",
									"maxclass" : "comment",
									"numinlets" : 1,
									"numoutlets" : 0,
									"patching_rect" : [ 616.66664468764111, 260.399996936321259, 127.0, 24.0 ],
									"text" : "Convert to quaver"
								}

							}
, 							{
								"box" : 								{
									"bubble" : 1,
									"id" : "obj-10",
									"maxclass" : "comment",
									"numinlets" : 1,
									"numoutlets" : 0,
									"patching_rect" : [ 616.66664468764111, 128.399996936321259, 214.0, 24.0 ],
									"text" : "Convert to crotchet via milliseconds"
								}

							}
, 							{
								"box" : 								{
									"format" : 6,
									"id" : "obj-8",
									"maxclass" : "flonum",
									"numinlets" : 1,
									"numoutlets" : 2,
									"outlettype" : [ "", "bang" ],
									"parameter_enable" : 0,
									"patching_rect" : [ 547.800006687641144, 323.399996936321259, 50.0, 22.0 ]
								}

							}
, 							{
								"box" : 								{
									"id" : "obj-5",
									"maxclass" : "newobj",
									"numinlets" : 2,
									"numoutlets" : 1,
									"outlettype" : [ "float" ],
									"patching_rect" : [ 547.800006687641144, 260.399996936321259, 29.5, 22.0 ],
									"text" : "/ 2."
								}

							}
, 							{
								"box" : 								{
									"id" : "obj-4",
									"maxclass" : "number",
									"numinlets" : 1,
									"numoutlets" : 2,
									"outlettype" : [ "", "bang" ],
									"parameter_enable" : 0,
									"patching_rect" : [ 547.800006687641144, 192.399996936321259, 50.0, 22.0 ]
								}

							}
, 							{
								"box" : 								{
									"id" : "obj-1",
									"maxclass" : "newobj",
									"numinlets" : 2,
									"numoutlets" : 1,
									"outlettype" : [ "int" ],
									"patching_rect" : [ 547.800006687641144, 128.399996936321259, 52.0, 22.0 ],
									"text" : "!/ 60000"
								}

							}
, 							{
								"box" : 								{
									"comment" : "",
									"id" : "obj-56",
									"index" : 1,
									"maxclass" : "inlet",
									"numinlets" : 0,
									"numoutlets" : 1,
									"outlettype" : [ "int" ],
									"patching_rect" : [ 211.70000608344651, 39.999999878074647, 30.0, 30.0 ]
								}

							}
, 							{
								"box" : 								{
									"comment" : "",
									"id" : "obj-57",
									"index" : 2,
									"maxclass" : "inlet",
									"numinlets" : 0,
									"numoutlets" : 1,
									"outlettype" : [ "float" ],
									"patching_rect" : [ 400.600000083446503, 39.999999878074647, 30.0, 30.0 ]
								}

							}
, 							{
								"box" : 								{
									"comment" : "",
									"id" : "obj-58",
									"index" : 1,
									"maxclass" : "outlet",
									"numinlets" : 1,
									"numoutlets" : 0,
									"patching_rect" : [ 265.400003083446506, 541.201926878074687, 30.0, 30.0 ]
								}

							}
, 							{
								"box" : 								{
									"comment" : "",
									"id" : "obj-59",
									"index" : 2,
									"maxclass" : "outlet",
									"numinlets" : 1,
									"numoutlets" : 0,
									"patching_rect" : [ 300.400003083446506, 541.201926878074687, 30.0, 30.0 ]
								}

							}
 ],
						"lines" : [ 							{
								"patchline" : 								{
									"destination" : [ "obj-4", 0 ],
									"source" : [ "obj-1", 0 ]
								}

							}
, 							{
								"patchline" : 								{
									"destination" : [ "obj-21", 3 ],
									"source" : [ "obj-19", 0 ]
								}

							}
, 							{
								"patchline" : 								{
									"destination" : [ "obj-19", 0 ],
									"source" : [ "obj-20", 0 ]
								}

							}
, 							{
								"patchline" : 								{
									"destination" : [ "obj-59", 0 ],
									"source" : [ "obj-21", 0 ]
								}

							}
, 							{
								"patchline" : 								{
									"destination" : [ "obj-58", 0 ],
									"source" : [ "obj-26", 0 ]
								}

							}
, 							{
								"patchline" : 								{
									"destination" : [ "obj-21", 1 ],
									"order" : 1,
									"source" : [ "obj-4", 0 ]
								}

							}
, 							{
								"patchline" : 								{
									"destination" : [ "obj-5", 0 ],
									"order" : 0,
									"source" : [ "obj-4", 0 ]
								}

							}
, 							{
								"patchline" : 								{
									"destination" : [ "obj-1", 0 ],
									"source" : [ "obj-42", 0 ]
								}

							}
, 							{
								"patchline" : 								{
									"destination" : [ "obj-8", 0 ],
									"source" : [ "obj-5", 0 ]
								}

							}
, 							{
								"patchline" : 								{
									"destination" : [ "obj-21", 0 ],
									"order" : 0,
									"source" : [ "obj-56", 0 ]
								}

							}
, 							{
								"patchline" : 								{
									"destination" : [ "obj-42", 0 ],
									"order" : 1,
									"source" : [ "obj-56", 0 ]
								}

							}
, 							{
								"patchline" : 								{
									"destination" : [ "obj-1", 0 ],
									"order" : 0,
									"source" : [ "obj-57", 0 ]
								}

							}
, 							{
								"patchline" : 								{
									"destination" : [ "obj-26", 0 ],
									"order" : 1,
									"source" : [ "obj-57", 0 ]
								}

							}
, 							{
								"patchline" : 								{
									"destination" : [ "obj-20", 0 ],
									"order" : 0,
									"source" : [ "obj-8", 0 ]
								}

							}
, 							{
								"patchline" : 								{
									"destination" : [ "obj-21", 2 ],
									"order" : 1,
									"source" : [ "obj-8", 0 ]
								}

							}
 ]
					}
,
					"patching_rect" : [ 172.400002837181091, 160.000002262260438, 109.0, 22.0 ],
					"saved_object_attributes" : 					{
						"description" : "",
						"digest" : "",
						"globalpatchername" : "",
						"tags" : ""
					}
,
					"text" : "p MsToSubdivision"
				}

			}
, 			{
				"box" : 				{
					"bubble" : 1,
					"id" : "obj-55",
					"maxclass" : "comment",
					"numinlets" : 1,
					"numoutlets" : 0,
					"patching_rect" : [ 352.866640086162533, 228.199997961521149, 132.0, 24.0 ],
					"presentation" : 1,
					"presentation_rect" : [ 156.866637165534939, 172.399997115135193, 132.0, 24.0 ],
					"text" : "Ms per subdivision"
				}

			}
, 			{
				"box" : 				{
					"fontname" : "DisposableDroid BB Bold Italic",
					"fontsize" : 12.0,
					"id" : "obj-24",
					"items" : [ "Off", ",", "1/4", ",", "1/8", ",", "1/16" ],
					"maxclass" : "umenu",
					"numinlets" : 1,
					"numoutlets" : 3,
					"outlettype" : [ "int", "", "" ],
					"parameter_enable" : 0,
					"patching_rect" : [ 60.000000894069672, 160.000002262260438, 57.199998557567596, 20.0 ],
					"presentation" : 1,
					"presentation_rect" : [ 67.566624368190674, 135.999996900558472, 48.399998426437378, 20.0 ]
				}

			}
, 			{
				"box" : 				{
					"format" : 6,
					"id" : "obj-23",
					"maxclass" : "flonum",
					"numinlets" : 1,
					"numoutlets" : 2,
					"outlettype" : [ "", "bang" ],
					"parameter_enable" : 0,
					"patching_rect" : [ 262.400002837181091, 229.199997961521149, 77.200000405311584, 22.0 ],
					"presentation" : 1,
					"presentation_rect" : [ 67.566624368190674, 172.399997115135193, 77.200000405311584, 22.0 ]
				}

			}
, 			{
				"box" : 				{
					"bubble" : 1,
					"id" : "obj-12",
					"maxclass" : "comment",
					"numinlets" : 1,
					"numoutlets" : 0,
					"patching_rect" : [ 396.266640837181058, 136.558136523162887, 62.0, 24.0 ],
					"presentation" : 1,
					"presentation_rect" : [ 128.266636843669858, 99.408355761581447, 62.0, 24.0 ],
					"text" : "Tempo"
				}

			}
, 			{
				"box" : 				{
					"id" : "obj-30",
					"maxclass" : "number",
					"numinlets" : 1,
					"numoutlets" : 2,
					"outlettype" : [ "", "bang" ],
					"parameter_enable" : 0,
					"patching_rect" : [ 325.400002837181091, 136.558136523162887, 50.0, 22.0 ],
					"presentation" : 1,
					"presentation_rect" : [ 67.566624368190674, 99.408355761581447, 50.0, 22.0 ]
				}

			}
, 			{
				"box" : 				{
					"id" : "obj-16",
					"maxclass" : "dial",
					"min" : 60.0,
					"numinlets" : 1,
					"numoutlets" : 1,
					"outlettype" : [ "float" ],
					"parameter_enable" : 0,
					"patching_rect" : [ 262.400002837181091, 71.408172523162847, 40.0, 40.0 ],
					"presentation" : 1,
					"presentation_rect" : [ 67.566624368190674, 46.841679654293074, 40.0, 40.0 ],
					"size" : 121.0
				}

			}
, 			{
				"box" : 				{
					"id" : "obj-6",
					"maxclass" : "newobj",
					"numinlets" : 1,
					"numoutlets" : 0,
					"patcher" : 					{
						"fileversion" : 1,
						"appversion" : 						{
							"major" : 8,
							"minor" : 1,
							"revision" : 1,
							"architecture" : "x64",
							"modernui" : 1
						}
,
						"classnamespace" : "box",
						"rect" : [ 552.0, 284.0, 208.0, 292.0 ],
						"bglocked" : 0,
						"openinpresentation" : 0,
						"default_fontsize" : 12.0,
						"default_fontface" : 0,
						"default_fontname" : "Arial",
						"gridonopen" : 1,
						"gridsize" : [ 15.0, 15.0 ],
						"gridsnaponopen" : 1,
						"objectsnaponopen" : 1,
						"statusbarvisible" : 2,
						"toolbarvisible" : 1,
						"lefttoolbarpinned" : 0,
						"toptoolbarpinned" : 0,
						"righttoolbarpinned" : 0,
						"bottomtoolbarpinned" : 0,
						"toolbars_unpinned_last_save" : 0,
						"tallnewobj" : 0,
						"boxanimatetime" : 200,
						"enablehscroll" : 1,
						"enablevscroll" : 1,
						"devicewidth" : 0.0,
						"description" : "",
						"digest" : "",
						"tags" : "",
						"style" : "",
						"subpatcher_template" : "",
						"boxes" : [ 							{
								"box" : 								{
									"fontsize" : 12.0,
									"id" : "obj-121",
									"maxclass" : "newobj",
									"numinlets" : 2,
									"numoutlets" : 1,
									"outlettype" : [ "int" ],
									"patching_rect" : [ 23.999999225139618, 67.333332359790802, 30.0, 22.0 ],
									"text" : "+ 1"
								}

							}
, 							{
								"box" : 								{
									"fontname" : "Arial",
									"fontsize" : 12.0,
									"id" : "obj-38",
									"maxclass" : "number",
									"numinlets" : 1,
									"numoutlets" : 2,
									"outlettype" : [ "", "bang" ],
									"parameter_enable" : 0,
									"patching_rect" : [ 23.999999225139618, 97.333210359790769, 50.0, 22.0 ]
								}

							}
, 							{
								"box" : 								{
									"fontname" : "Arial",
									"fontsize" : 12.0,
									"id" : "obj-39",
									"maxclass" : "newobj",
									"numinlets" : 2,
									"numoutlets" : 0,
									"patching_rect" : [ 23.999999225139618, 128.333210359790769, 71.0, 22.0 ],
									"text" : "pgmout a 1"
								}

							}
, 							{
								"box" : 								{
									"comment" : "",
									"id" : "obj-5",
									"index" : 1,
									"maxclass" : "inlet",
									"numinlets" : 0,
									"numoutlets" : 1,
									"outlettype" : [ "int" ],
									"patching_rect" : [ 23.999999225139618, 7.333332359790802, 30.0, 30.0 ]
								}

							}
 ],
						"lines" : [ 							{
								"patchline" : 								{
									"color" : [ 0.0, 0.027378, 0.438662, 1.0 ],
									"destination" : [ "obj-38", 0 ],
									"source" : [ "obj-121", 0 ]
								}

							}
, 							{
								"patchline" : 								{
									"color" : [ 0.0, 0.027378, 0.438662, 1.0 ],
									"destination" : [ "obj-39", 0 ],
									"source" : [ "obj-38", 0 ]
								}

							}
, 							{
								"patchline" : 								{
									"destination" : [ "obj-121", 0 ],
									"source" : [ "obj-5", 0 ]
								}

							}
 ]
					}
,
					"patching_rect" : [ 20.599999964237213, 40.299999833106995, 126.0, 22.0 ],
					"saved_object_attributes" : 					{
						"description" : "",
						"digest" : "",
						"globalpatchername" : "",
						"tags" : ""
					}
,
					"text" : "p GMProgramChange"
				}

			}
, 			{
				"box" : 				{
					"fontname" : "DisposableDroid BB Bold Italic",
					"fontsize" : 12.0,
					"id" : "obj-37",
					"items" : [ "Acoustic", "Grand", "Piano", ",", "Bright", "Acoustic", "Piano", ",", "Electric", "Grand", "Piano", ",", "Honky-tonk", "Piano", ",", "Electric", "Piano", 1, ",", "Electric", "Piano", 2, ",", "Harpsichord", ",", "Clavinet", ",", "Celesta", ",", "Glockenspiel", ",", "Music", "Box", ",", "Vibraphone", ",", "Marimba", ",", "Xylophone", ",", "Tubular", "Bells", ",", "Dulcimer", ",", "Drawbar", "Organ", ",", "Percussive", "Organ", ",", "Rock", "Organ", ",", "Church", "Organ", ",", "Reed", "Organ", ",", "Accordion", ",", "Harmonica", ",", "Tango", "Accordion", ",", "Acoustic", "Guitar", "(nylon)", ",", "Acoustic", "Guitar", "(steel)", ",", "Electric", "Guitar", "(jazz)", ",", "Electric", "Guitar", "(clean)", ",", "Electric", "Guitar", "(muted)", ",", "Overdriven", "Guitar", ",", "Distortion", "Guitar", ",", "Guitar", "Harmonics", ",", "Acoustic", "Bass", ",", "Electric", "Bass", "(finger)", ",", "Electric", "Bass", "(pick)", ",", "Fretless", "Bass", ",", "Slap", "Bass", 1, ",", "Slap", "Bass", 2, ",", "Synth", "Bass", 1, ",", "Synth", "Bass", 2, ",", "Violin", ",", "Viola", ",", "Cello", ",", "Contrabass", ",", "Tremolo", "Strings", ",", "Pizzicato", "Strings", ",", "Orchestral", "Harp", ",", "Timpani", "Ensemble", ",", "String", "Ensemble", 1, ",", "String", "Ensemble", 2, ",", "Synth", "Strings", 1, ",", "Synth", "Strings", 2, ",", "Choir", "Aahs", ",", "Voice", "Oohs", ",", "Synth", "Choir", ",", "Orchestra", "Hit", ",", "Trumpet", ",", "Trombone", ",", "Tuba", ",", "Muted", "Trumpet", ",", "French", "Horn", ",", "Brass", "Section", ",", "Synth", "Brass", 1, ",", "Synth", "Brass", 2, ",", "Soprano", "Sax", ",", "Alto", "Sax", ",", "Tenor", "Sax", ",", "Baritone", "Sax", ",", "Oboe", ",", "English", "Horn", ",", "Bassoon", ",", "Clarinet", ",", "Piccolo", ",", "Flute", ",", "Recorder", ",", "Pan", "Flute", ",", "Blown", "bottle", ",", "Shakuhachi", ",", "Whistle", ",", "Ocarina", ",", "Lead", 1, "(square)", ",", "Lead", 2, "(sawtooth)", ",", "Lead", 3, "(calliope)", ",", "Lead", 4, "(chiff)", ",", "Lead", 5, "(charang)", ",", "Lead", 6, "(voice)", ",", "Lead", 7, "(fifths)", ",", "Lead", 8, "(bass", "+", "lead)", ",", "Pad", 1, "(new", "age)", ",", "Pad", 2, "(warm)", ",", "Pad", 3, "(polysynth)", ",", "Pad", 4, "(choir)", ",", "Pad", 5, "(bowed)", ",", "Pad", 6, "(metallic)", ",", "Pad", 7, "(halo)", ",", "Pad", 8, "(sweep)", ",", "FX", 1, "(rain)", ",", "FX", 2, "(soundtrack)", ",", "FX", 3, "(crystal)", ",", "FX", 4, "(atmosphere)", ",", "FX", 5, "(brightness)", ",", "FX", 6, "(goblins)", ",", "FX", 7, "(echoes)", ",", "FX", 8, "(sci-fi)", ",", "Sitar", ",", "Banjo", ",", "Shamisen", ",", "Koto", ",", "Kalimba", ",", "Bagpipe", ",", "Fiddle", ",", "Shanai", ",", "Tinkle", "Bell", ",", "Agogo", ",", "Steel", "Drums", ",", "Woodblock", ",", "Taiko", "Drum", ",", "Melodic", "Tom", ",", "Synth", "Drum", ",", "Reverse", "Cymbal", ",", "Guitar", "Fret", "Noise", ",", "Breath", "Noise", ",", "Seashore", ",", "Bird", "Tweet", ",", "Telephone", "Ring", ",", "Helicopter", ",", "Applause", ",", "Gunshot" ],
					"maxclass" : "umenu",
					"numinlets" : 1,
					"numoutlets" : 3,
					"outlettype" : [ "int", "", "" ],
					"parameter_enable" : 0,
					"patching_rect" : [ 20.599999964237213, 9.799999833106995, 154.0, 20.0 ],
					"presentation" : 1,
					"presentation_rect" : [ 13.5, 4.5, 154.0, 20.0 ]
				}

			}
 ],
		"lines" : [ 			{
				"patchline" : 				{
					"destination" : [ "obj-30", 0 ],
					"order" : 0,
					"source" : [ "obj-16", 0 ]
				}

			}
, 			{
				"patchline" : 				{
					"destination" : [ "obj-60", 1 ],
					"order" : 1,
					"source" : [ "obj-16", 0 ]
				}

			}
, 			{
				"patchline" : 				{
					"destination" : [ "obj-60", 0 ],
					"source" : [ "obj-24", 0 ]
				}

			}
, 			{
				"patchline" : 				{
					"destination" : [ "obj-6", 0 ],
					"source" : [ "obj-37", 0 ]
				}

			}
, 			{
				"patchline" : 				{
					"destination" : [ "obj-23", 0 ],
					"source" : [ "obj-60", 1 ]
				}

			}
, 			{
				"patchline" : 				{
					"destination" : [ "obj-24", 0 ],
					"source" : [ "obj-60", 0 ]
				}

			}
 ],
		"dependency_cache" : [  ],
		"autosave" : 0,
		"styles" : [ 			{
				"name" : "jpatcher002",
				"parentstyle" : "",
				"multi" : 0
			}
, 			{
				"name" : "ksliderWhite",
				"default" : 				{
					"color" : [ 1, 1, 1, 1 ]
				}
,
				"parentstyle" : "",
				"multi" : 0
			}
, 			{
				"name" : "newobjBlue-1",
				"default" : 				{
					"accentcolor" : [ 0.317647, 0.654902, 0.976471, 1 ]
				}
,
				"parentstyle" : "",
				"multi" : 0
			}
, 			{
				"name" : "newobjGreen-1",
				"default" : 				{
					"accentcolor" : [ 0, 0.533333, 0.168627, 1 ]
				}
,
				"parentstyle" : "",
				"multi" : 0
			}
, 			{
				"name" : "numberGold-1",
				"default" : 				{
					"accentcolor" : [ 0.764706, 0.592157, 0.101961, 1 ]
				}
,
				"parentstyle" : "",
				"multi" : 0
			}
 ]
	}

}
