{
  "version": "0.6.2b",
  "modules": [
    {
      "plugin": "Fundamental",
      "version": "0.6.2",
      "model": "VCMixer",
      "params": [
        {
          "paramId": 0,
          "value": 1.0
        },
        {
          "paramId": 1,
          "value": 1.0
        },
        {
          "paramId": 2,
          "value": 1.0
        },
        {
          "paramId": 3,
          "value": 1.0
        },
        {
          "paramId": 4,
          "value": 1.0
        }
      ],
      "pos": [
        57,
        0
      ]
    },
    {
      "plugin": "Core",
      "version": "0.6.2b",
      "model": "AudioInterface",
      "params": [],
      "data": {
        "audio": {
          "driver": 5,
          "deviceName": "Apple Inc.: Built-in Output",
          "offset": 0,
          "maxChannels": 8,
          "sampleRate": 48000,
          "blockSize": 1024
        }
      },
      "pos": [
        85,
        0
      ]
    },
    {
      "plugin": "Fundamental",
      "version": "0.6.2",
      "model": "SEQ3",
      "params": [
        {
          "paramId": 0,
          "value": 2.0
        },
        {
          "paramId": 1,
          "value": 0.0
        },
        {
          "paramId": 2,
          "value": 0.0
        },
        {
          "paramId": 3,
          "value": 8.0
        },
        {
          "paramId": 4,
          "value": 2.00999928
        },
        {
          "paramId": 12,
          "value": 4.33500004
        },
        {
          "paramId": 20,
          "value": 8.25999737
        },
        {
          "paramId": 28,
          "value": 0.0
        },
        {
          "paramId": 5,
          "value": 0.0
        },
        {
          "paramId": 13,
          "value": 0.0
        },
        {
          "paramId": 21,
          "value": 0.0
        },
        {
          "paramId": 29,
          "value": 0.0
        },
        {
          "paramId": 6,
          "value": 4.96500254
        },
        {
          "paramId": 14,
          "value": 9.47999954
        },
        {
          "paramId": 22,
          "value": 0.0
        },
        {
          "paramId": 30,
          "value": 0.0
        },
        {
          "paramId": 7,
          "value": 0.0
        },
        {
          "paramId": 15,
          "value": 0.0
        },
        {
          "paramId": 23,
          "value": 0.0
        },
        {
          "paramId": 31,
          "value": 0.0
        },
        {
          "paramId": 8,
          "value": 2.27999854
        },
        {
          "paramId": 16,
          "value": 0.809999943
        },
        {
          "paramId": 24,
          "value": 0.0
        },
        {
          "paramId": 32,
          "value": 0.0
        },
        {
          "paramId": 9,
          "value": 1.08000076
        },
        {
          "paramId": 17,
          "value": 1.30499983
        },
        {
          "paramId": 25,
          "value": 0.0
        },
        {
          "paramId": 33,
          "value": 0.0
        },
        {
          "paramId": 10,
          "value": 0.0
        },
        {
          "paramId": 18,
          "value": 0.0
        },
        {
          "paramId": 26,
          "value": 0.0
        },
        {
          "paramId": 34,
          "value": 0.0
        },
        {
          "paramId": 11,
          "value": 3.35999966
        },
        {
          "paramId": 19,
          "value": 4.89000177
        },
        {
          "paramId": 27,
          "value": 9.14999962
        },
        {
          "paramId": 35,
          "value": 0.0
        }
      ],
      "data": {
        "running": true,
        "gates": [
          1,
          0,
          1,
          0,
          1,
          1,
          0,
          1
        ]
      },
      "pos": [
        0,
        0
      ]
    },
    {
      "plugin": "Fundamental",
      "version": "0.6.2",
      "model": "VCO",
      "params": [
        {
          "paramId": 0,
          "value": 1.0
        },
        {
          "paramId": 1,
          "value": 1.0
        },
        {
          "paramId": 2,
          "value": 0.0
        },
        {
          "paramId": 3,
          "value": 0.0
        },
        {
          "paramId": 5,
          "value": 0.5
        },
        {
          "paramId": 4,
          "value": 0.0
        },
        {
          "paramId": 6,
          "value": 0.0
        }
      ],
      "pos": [
        22,
        0
      ]
    },
    {
      "plugin": "Fundamental",
      "version": "0.6.2",
      "model": "VCA",
      "params": [
        {
          "paramId": 0,
          "value": 0.856500149
        },
        {
          "paramId": 1,
          "value": 0.764499843
        }
      ],
      "pos": [
        32,
        0
      ]
    },
    {
      "plugin": "Fundamental",
      "version": "0.6.2",
      "model": "ADSR",
      "params": [
        {
          "paramId": 0,
          "value": 0.234000087
        },
        {
          "paramId": 1,
          "value": 0.651499987
        },
        {
          "paramId": 2,
          "value": 0.662
        },
        {
          "paramId": 3,
          "value": 0.688999176
        }
      ],
      "pos": [
        14,
        1
      ]
    },
    {
      "plugin": "Fundamental",
      "version": "0.6.2",
      "model": "VCF",
      "params": [
        {
          "paramId": 0,
          "value": 0.880000949
        },
        {
          "paramId": 1,
          "value": 0.5
        },
        {
          "paramId": 2,
          "value": 0.0
        },
        {
          "paramId": 3,
          "value": 0.227999777
        },
        {
          "paramId": 4,
          "value": 0.0
        }
      ],
      "pos": [
        41,
        0
      ]
    },
    {
      "plugin": "Fundamental",
      "version": "0.6.2",
      "model": "LFO",
      "params": [
        {
          "paramId": 0,
          "value": 0.0
        },
        {
          "paramId": 1,
          "value": 1.0
        },
        {
          "paramId": 2,
          "value": 3.57400322
        },
        {
          "paramId": 3,
          "value": 0.0
        },
        {
          "paramId": 5,
          "value": 0.5
        },
        {
          "paramId": 4,
          "value": 0.0
        },
        {
          "paramId": 6,
          "value": 0.0
        }
      ],
      "pos": [
        22,
        1
      ]
    },
    {
      "plugin": "Fundamental",
      "version": "0.6.2",
      "model": "VCO",
      "params": [
        {
          "paramId": 0,
          "value": 1.0
        },
        {
          "paramId": 1,
          "value": 1.0
        },
        {
          "paramId": 2,
          "value": 20.6279793
        },
        {
          "paramId": 3,
          "value": 0.0
        },
        {
          "paramId": 5,
          "value": 0.5
        },
        {
          "paramId": 4,
          "value": 0.0
        },
        {
          "paramId": 6,
          "value": 0.0
        }
      ],
      "pos": [
        57,
        1
      ]
    },
    {
      "plugin": "Fundamental",
      "version": "0.6.2",
      "model": "Delay",
      "params": [
        {
          "paramId": 0,
          "value": 0.309000045
        },
        {
          "paramId": 1,
          "value": 0.694000006
        },
        {
          "paramId": 2,
          "value": 0.5
        },
        {
          "paramId": 3,
          "value": 0.5
        }
      ],
      "pos": [
        49,
        0
      ]
    },
    {
      "plugin": "AudibleInstruments",
      "version": "0.6.3",
      "model": "Clouds",
      "params": [
        {
          "paramId": 3,
          "value": 0.5
        },
        {
          "paramId": 4,
          "value": 0.5
        },
        {
          "paramId": 5,
          "value": 0.0
        },
        {
          "paramId": 6,
          "value": 0.5
        },
        {
          "paramId": 7,
          "value": 0.890000105
        },
        {
          "paramId": 8,
          "value": 1.0
        },
        {
          "paramId": 9,
          "value": 0.5
        },
        {
          "paramId": 10,
          "value": 0.0
        },
        {
          "paramId": 11,
          "value": 0.0
        },
        {
          "paramId": 12,
          "value": 0.0
        },
        {
          "paramId": 0,
          "value": 0.0
        },
        {
          "paramId": 1,
          "value": 0.0
        },
        {
          "paramId": 2,
          "value": 0.0
        }
      ],
      "data": {
        "playback": 0,
        "quality": 0,
        "blendMode": 0
      },
      "pos": [
        67,
        0
      ]
    }
  ],
  "wires": [
    {
      "color": "#0986ad",
      "outputModuleId": 0,
      "outputId": 0,
      "inputModuleId": 10,
      "inputId": 6
    },
    {
      "color": "#c9b70e",
      "outputModuleId": 0,
      "outputId": 0,
      "inputModuleId": 10,
      "inputId": 7
    },
    {
      "color": "#0c8e15",
      "outputModuleId": 2,
      "outputId": 0,
      "inputModuleId": 5,
      "inputId": 4
    },
    {
      "color": "#0986ad",
      "outputModuleId": 5,
      "outputId": 0,
      "inputModuleId": 4,
      "inputId": 0
    },
    {
      "color": "#c9b70e",
      "outputModuleId": 3,
      "outputId": 2,
      "inputModuleId": 4,
      "inputId": 2
    },
    {
      "color": "#c91847",
      "outputModuleId": 4,
      "outputId": 0,
      "inputModuleId": 6,
      "inputId": 3
    },
    {
      "color": "#0c8e15",
      "outputModuleId": 2,
      "outputId": 1,
      "inputModuleId": 3,
      "inputId": 0
    },
    {
      "color": "#c9b70e",
      "outputModuleId": 6,
      "outputId": 0,
      "inputModuleId": 9,
      "inputId": 4
    },
    {
      "color": "#0c8e15",
      "outputModuleId": 7,
      "outputId": 3,
      "inputModuleId": 9,
      "inputId": 1
    },
    {
      "color": "#0986ad",
      "outputModuleId": 7,
      "outputId": 0,
      "inputModuleId": 9,
      "inputId": 0
    },
    {
      "color": "#c91847",
      "outputModuleId": 9,
      "outputId": 0,
      "inputModuleId": 0,
      "inputId": 1
    },
    {
      "color": "#0c8e15",
      "outputModuleId": 10,
      "outputId": 0,
      "inputModuleId": 1,
      "inputId": 0
    },
    {
      "color": "#0986ad",
      "outputModuleId": 10,
      "outputId": 1,
      "inputModuleId": 1,
      "inputId": 1
    },
    {
      "color": "#c9b70e",
      "outputModuleId": 8,
      "outputId": 2,
      "inputModuleId": 6,
      "inputId": 1
    }
  ]
}